<svg id="Capa_1" data-name="Capa 1" xmlns="http://www.w3.org/2000/svg" viewBox="0 0 126 141.73"><defs><style>.cls-1{fill:#742069;}.cls-2{fill:#cfa8ce;}.cls-3{fill:#9066a7;}.cls-4{fill:#cab0d4;}.cls-5{fill:#542b7c;}</style></defs><path class="cls-1" d="M10.63,115.58a.87.87,0,0,1-.64-.27.91.91,0,0,1-.28-.64V90.9a.87.87,0,0,1,.28-.66.89.89,0,0,1,.64-.25h3.95a1.18,1.18,0,0,1,.91.31,1.71,1.71,0,0,1,.37.49l6.43,11.52,6.44-11.52a3.3,3.3,0,0,1,.38-.49A1.13,1.13,0,0,1,30,90h3.91a1,1,0,0,1,.68.25.87.87,0,0,1,.27.66v23.77a.9.9,0,0,1-.27.64.94.94,0,0,1-.68.27H29.57a.93.93,0,0,1-.68-.27.9.9,0,0,1-.27-.64V101l-4.1,7.65a2.18,2.18,0,0,1-.47.58,1.21,1.21,0,0,1-.81.26h-1.9a1.17,1.17,0,0,1-.8-.26,2,2,0,0,1-.48-.58L15.93,101v13.72a.93.93,0,0,1-.26.64.86.86,0,0,1-.65.27Z"/><path class="cls-1" d="M38.53,115.58a.71.71,0,0,1-.53-.24.72.72,0,0,1-.24-.53,1.69,1.69,0,0,1,0-.33L46.39,91a1.4,1.4,0,0,1,.45-.71,1.41,1.41,0,0,1,1-.31h5.41a1.38,1.38,0,0,1,1,.31,1.42,1.42,0,0,1,.46.71l8.56,23.47a.88.88,0,0,1,.07.33.72.72,0,0,1-.24.53.78.78,0,0,1-.57.24H58a1.15,1.15,0,0,1-.83-.27,1.43,1.43,0,0,1-.34-.5l-1.43-3.73H45.62l-1.39,3.73a1.52,1.52,0,0,1-.33.5,1.17,1.17,0,0,1-.88.27Zm8.59-9.76h6.8l-3.4-9.65Z"/><path class="cls-1" d="M70.12,115.58a.87.87,0,0,1-.66-.27.93.93,0,0,1-.26-.64V95.73H62.69a.87.87,0,0,1-.65-.28.86.86,0,0,1-.26-.64V90.9a.86.86,0,0,1,.26-.66.88.88,0,0,1,.65-.25H82.36a.87.87,0,0,1,.92.91v3.91a.9.9,0,0,1-.26.64.87.87,0,0,1-.66.28h-6.5v18.94a.93.93,0,0,1-.26.64.87.87,0,0,1-.66.27Z"/><path class="cls-1" d="M87.52,115.58a.87.87,0,0,1-.66-.27.92.92,0,0,1-.25-.64V90.9a.86.86,0,0,1,.91-.91H104.6a.88.88,0,0,1,.65.25.9.9,0,0,1,.26.66v3.44a.87.87,0,0,1-.26.65.85.85,0,0,1-.65.26H92.93v4.94h10.86a.87.87,0,0,1,.66.27,1,1,0,0,1,.25.68v3.18a.91.91,0,0,1-.25.64.87.87,0,0,1-.66.27H92.93v5.09h12a.86.86,0,0,1,.91.91v3.44a.92.92,0,0,1-.25.64.87.87,0,0,1-.66.27Z"/><path class="cls-1" d="M110.88,115.58a.86.86,0,0,1-.65-.27.89.89,0,0,1-.26-.64V90.9a.86.86,0,0,1,.26-.66.88.88,0,0,1,.65-.25h4.9a1,1,0,0,1,.68.25.87.87,0,0,1,.27.66v23.77a.9.9,0,0,1-.27.64.93.93,0,0,1-.68.27Z"/><path class="cls-1" d="M34.15,87,12,86.49h0a3.43,3.43,0,0,1-2.42-1c-.55-.76-.31-2,0-2.93l16.9-51.35c0-.08.08-.16.11-.24,2.66,7.7,10.65,31.21,14.13,41.45-.32,3.91-2,13.34-6.55,14.55"/><path class="cls-2" d="M42.23,68c-3.44-10.14-12-35.21-13.59-39.82a8.87,8.87,0,0,1,1.36-1c2.23-1.25,5.09-1.06,7.86-.88L40,26.4l8.52.27c.59,0,1.2,0,1.82,0a12.73,12.73,0,0,1,5.34.67,6.71,6.71,0,0,1,1.39.89Z"/><path class="cls-3" d="M83,67.92l-.89-2.58v.1L69,28.41a7.65,7.65,0,0,1,3.85-1.83l18.52,0a9.7,9.7,0,0,1,6,1.44Z"/><path class="cls-4" d="M116.41,85.54c-.42.68-1.35,1-2.73,1.07l-18.9.26c-.22,0-5.5,0-6.91-4.91l-3.35-9.69L99.46,30.66a7.62,7.62,0,0,1,.48,1.59l15.73,47.59.07.18c.47,1,1.59,4,.67,5.52"/><path class="cls-5" d="M81.3,71.82,74.52,52.64C72,45.61,69.42,38.05,67,31c-.06-.15-3,5.61-4,7.57a.37.37,0,0,1-.65,0c-1-2-3.92-7.72-4-7.57-2.47,7-5.09,14.59-7.57,21.62L44,71.82c-.05.14-.24.46-.22.62C44,74,45,82,49,85.39a5.91,5.91,0,0,0,4.62,1.37c2.77.07,5.53.08,8.3.06h1.37c2.76,0,5.53,0,8.29-.06a5.9,5.9,0,0,0,4.62-1.37c4-3.36,5.1-11.37,5.28-13A2.29,2.29,0,0,0,81.3,71.82Z"/></svg>