<svg id="Capa_1" data-name="Capa 1" xmlns="http://www.w3.org/2000/svg" viewBox="0 0 126 35.93"><defs><style>.cls-1{fill:#1355a0;}.cls-2{fill:#e73b35;}</style></defs><path class="cls-1" d="M53.39,17c.51.36.92.63,1.3.91a7.77,7.77,0,0,1,.75.65.87.87,0,0,1,.08,1.13.79.79,0,0,1-1.08.31,14.49,14.49,0,0,1-1.58-1A10.41,10.41,0,0,0,46.4,17c-.76,0-1.52,0-2.28,0s-1.07.24-1.09,1c0,.39,0,.78,0,1.17a.87.87,0,0,1-1,1,.91.91,0,0,1-.95-1c0-.71,0-1.41,0-2.11A2.22,2.22,0,0,1,43,15.12a10.31,10.31,0,0,1,1.11,0l8.22,0A2.18,2.18,0,0,0,53.1,15a.53.53,0,0,0,.39-.4.81.81,0,0,0-.2-.7,1.27,1.27,0,0,0-.67-.14H42.29c-.77,0-1.15-.29-1.17-.91s.46-1,1.2-1c3.48,0,7,0,10.45,0a4.15,4.15,0,0,1,1.82.48,2.19,2.19,0,0,1,1.06,2.46,2.39,2.39,0,0,1-1.58,1.89Z"/><path class="cls-1" d="M68.35,20.1c-1.29,0-2.58-.06-3.86,0a3.34,3.34,0,0,1-3.25-2.22,4.63,4.63,0,0,1,.31-4.32,3.28,3.28,0,0,1,2.9-1.66c2.6,0,5.2,0,7.8,0a3.42,3.42,0,0,1,3.36,2.25,4.44,4.44,0,0,1-1.56,5.48,3.17,3.17,0,0,1-1.48.42C71.17,20.14,69.76,20.1,68.35,20.1Zm0-1.87h0c1.26,0,2.51,0,3.76,0a2,2,0,0,0,2-2.15,2,2,0,0,0-2-2.25c-2.48,0-5,0-7.45,0-1.27,0-1.95.9-1.92,2.35a2,2,0,0,0,2,2.05Z"/><path class="cls-1" d="M88.43,11.93c1.17,0,2.34,0,3.51,0a3.45,3.45,0,0,1,3.35,2.5A11.67,11.67,0,0,1,95.58,18c0,.39,0,.78,0,1.17a1,1,0,0,1-1.93,0c0-1.1,0-2.19,0-3.28a2,2,0,0,0-2.1-2.07c-2.09,0-4.18,0-6.27,0A2,2,0,0,0,83.07,16c0,1,0,2,0,3,0,.7-.32,1-1,1.06s-.93-.31-.94-1c0-1.11,0-2.23,0-3.34a4.13,4.13,0,0,1,1-2.66,3.14,3.14,0,0,1,2.69-1.16h3.52Z"/><path class="cls-2" d="M27.29,29.37h-.18a11.79,11.79,0,0,1-7.55-2.76c-.5-.43-1-.84-1.52-1.27-.68-.6-.61-1,.22-1.37a1.52,1.52,0,0,1,2.12.45,11.34,11.34,0,0,0,4.22,3,8.72,8.72,0,0,0,7.23-.47A17.64,17.64,0,0,0,36.61,23c.35-.39.75-.73,1.14-1.09a2.52,2.52,0,0,1,1.93-.46c.31,0,.5.25.29.59a1.93,1.93,0,0,1-.35.46C38.27,23.72,37,25,35.54,26.08a14.82,14.82,0,0,1-5.05,2.68A27.36,27.36,0,0,1,27.29,29.37Z"/><path class="cls-1" d="M21.62,11.92h6.16c.68,0,1,.29,1,.85,0,.73-.23,1-1,1-1.54,0-3.09,0-4.63,0-.55,0-.71.17-.7.71,0,1.5,0,3,0,4.5,0,.76-.28,1.1-1,1.1s-.88-.4-.88-1.12c0-1.54,0-3.08,0-4.62,0-.48-.16-.58-.62-.57-1.5,0-3,0-4.52,0-.75,0-1.2-.35-1.19-.91s.44-1,1.22-1h6.1Z"/><path class="cls-1" d="M102.65,16v3c0,.69-.32,1-1,1.05a1,1,0,0,1-1-1q0-3,0-6.07a1.06,1.06,0,0,1,1-1.08c.56,0,.93.44.93,1.11v3Z"/><path class="cls-1" d="M36,16c0,1,0,2,0,3,0,.69-.32,1.07-.94,1.1A1,1,0,0,1,34,19q0-3,0-6a1.1,1.1,0,0,1,1-1.1,1.07,1.07,0,0,1,.94,1.18c0,1,0,1.95,0,2.93Z"/><path class="cls-2" d="M36.09,9.88A1.29,1.29,0,0,1,35,11.31,1.27,1.27,0,0,1,33.93,10c0-.75.5-1.44,1.06-1.44A1.31,1.31,0,0,1,36.09,9.88Z"/><path class="cls-2" d="M100.64,9.79c.07-.22.08-.6.27-.78a1.58,1.58,0,0,1,1-.42.91.91,0,0,1,.79.82,1.66,1.66,0,0,1-.24,1.48c-.26.31-.6.54-1,.36a2.16,2.16,0,0,1-.72-.75A2,2,0,0,1,100.64,9.79Z"/><path class="cls-1" d="M44.17,24.27a1.66,1.66,0,0,1-.1.61,1.28,1.28,0,0,1-.28.45,1.31,1.31,0,0,1-.45.28,1.89,1.89,0,0,1-.6.1,1.6,1.6,0,0,1-.56-.09,1.16,1.16,0,0,1-.44-.27,1.19,1.19,0,0,1-.28-.43,1.9,1.9,0,0,1-.1-.61V22s0,0,0,0l.05,0h.39s0,0,0,0a.08.08,0,0,1,0,0v2.25a1.49,1.49,0,0,0,.06.45.77.77,0,0,0,.18.32.84.84,0,0,0,.29.2,1.23,1.23,0,0,0,.76,0,.81.81,0,0,0,.29-.19,1.33,1.33,0,0,0,.18-.31,1.51,1.51,0,0,0,.06-.44V22a.06.06,0,0,1,0,0l0,0h.39l0,0a.06.06,0,0,1,0,0Z"/><path class="cls-1" d="M50,25.43a.28.28,0,0,1,0,.1s0,0,0,.07a.08.08,0,0,1,0,0H48.28a.19.19,0,0,1-.12,0,.2.2,0,0,1-.06-.16V22a.06.06,0,0,1,0,0l0,0h.39l0,0a.06.06,0,0,1,0,0v3.22H50s0,0,0,0,0,0,0,.07A.25.25,0,0,1,50,25.43Z"/><path class="cls-1" d="M55.43,22.14a.22.22,0,0,1,0,.09.14.14,0,0,1,0,.07s0,0,0,0l0,0h-1v3.23a.08.08,0,0,1,0,0l0,0a.15.15,0,0,1-.08,0h-.23a.15.15,0,0,1-.08,0l0,0a.08.08,0,0,1,0,0V22.35h-1a.05.05,0,0,1,0,0,0,0,0,0,1,0,0,.14.14,0,0,1,0-.07.22.22,0,0,1,0-.09.31.31,0,0,1,0-.1.08.08,0,0,1,0-.06s0,0,0,0h2.67l0,0a.08.08,0,0,1,0,.06A.31.31,0,0,1,55.43,22.14Z"/><path class="cls-1" d="M61.4,25.58s0,0,0,0l0,0a.15.15,0,0,1-.08,0H61l-.08,0,0,0,0-.06-.34-.88a1.69,1.69,0,0,0-.13-.27.71.71,0,0,0-.15-.22A.6.6,0,0,0,60,24a.84.84,0,0,0-.29-.05h-.33v1.59s0,0,0,0l0,0-.07,0H59l-.08,0,0,0s0,0,0,0V22.13A.18.18,0,0,1,59,22a.2.2,0,0,1,.13,0h1l.17,0a1.06,1.06,0,0,1,.38.12.84.84,0,0,1,.28.2.77.77,0,0,1,.17.29,1,1,0,0,1,.06.35,1.14,1.14,0,0,1,0,.33.93.93,0,0,1-.15.26.74.74,0,0,1-.23.2,1.3,1.3,0,0,1-.29.14.57.57,0,0,1,.16.11.93.93,0,0,1,.14.14.82.82,0,0,1,.12.2c0,.08.08.16.12.26l.33.82a1.14,1.14,0,0,1,.06.14S61.4,25.56,61.4,25.58ZM60.65,23a.62.62,0,0,0-.1-.37.56.56,0,0,0-.32-.22l-.17,0h-.65v1.26h.48a1.16,1.16,0,0,0,.34-.05.62.62,0,0,0,.24-.13.56.56,0,0,0,.14-.2A.69.69,0,0,0,60.65,23Z"/><path class="cls-1" d="M67.85,25.48a.2.2,0,0,1,0,.1s0,0,0,.06l-.07,0h-.37l0,0a.05.05,0,0,1,0,0L67,24.67H65.48l-.31.9,0,0,0,0-.08,0h-.27a.08.08,0,0,1-.07,0s0,0,0-.06a.58.58,0,0,1,0-.1L65.94,22,66,22l.06,0,.09,0h.29l.1,0,.06,0a.33.33,0,0,1,0,.06Zm-1.6-3.06h0l-.64,1.86h1.3Z"/><path class="cls-1" d="M73.42,24.61a1,1,0,0,1-.1.46,1,1,0,0,1-.26.35,1.14,1.14,0,0,1-.41.21,1.59,1.59,0,0,1-.5.08,1.76,1.76,0,0,1-.34,0l-.29-.07-.21-.1-.12-.08,0-.09a.57.57,0,0,1,0-.14v-.11a.64.64,0,0,1,0-.07l0,0h0a.15.15,0,0,1,.11.05l.19.1a1.49,1.49,0,0,0,.28.11,1.09,1.09,0,0,0,.38.05.92.92,0,0,0,.29,0,.71.71,0,0,0,.23-.12.48.48,0,0,0,.15-.2.67.67,0,0,0,.05-.26.45.45,0,0,0-.07-.27.89.89,0,0,0-.19-.2,1.73,1.73,0,0,0-.27-.15l-.31-.15-.31-.16a1.09,1.09,0,0,1-.26-.21,1,1,0,0,1-.2-.28,1.13,1.13,0,0,1-.07-.39.93.93,0,0,1,.09-.42.87.87,0,0,1,.23-.31,1,1,0,0,1,.36-.18,1.33,1.33,0,0,1,.45-.07l.25,0,.24.06L73,22l.12.07a.09.09,0,0,1,0,0l0,0a.35.35,0,0,1,0,.06v.18s0,.05,0,.06,0,0,0,0a.05.05,0,0,1,0,0l-.1,0-.16-.09-.23-.1a1.36,1.36,0,0,0-.3,0,1.11,1.11,0,0,0-.28,0,.62.62,0,0,0-.19.12.46.46,0,0,0-.11.16.65.65,0,0,0,0,.2.5.5,0,0,0,.08.27.71.71,0,0,0,.19.2l.27.16.31.14.31.16a1.39,1.39,0,0,1,.27.21,1,1,0,0,1,.2.28A.94.94,0,0,1,73.42,24.61Z"/><path class="cls-1" d="M80.2,23.75a2.88,2.88,0,0,1-.11.81,1.74,1.74,0,0,1-.32.62,1.38,1.38,0,0,1-.53.39,1.89,1.89,0,0,1-.75.14,1.93,1.93,0,0,1-.72-.13,1.19,1.19,0,0,1-.51-.36,1.69,1.69,0,0,1-.3-.6,3.23,3.23,0,0,1-.09-.81A2.83,2.83,0,0,1,77,23a1.61,1.61,0,0,1,.32-.61,1.38,1.38,0,0,1,.53-.39,2,2,0,0,1,.75-.14,1.81,1.81,0,0,1,.72.13,1.22,1.22,0,0,1,.5.36,1.47,1.47,0,0,1,.31.58A3.26,3.26,0,0,1,80.2,23.75Zm-.53,0a3.61,3.61,0,0,0,0-.59,1.33,1.33,0,0,0-.19-.47.88.88,0,0,0-.35-.31,1.13,1.13,0,0,0-.54-.12,1,1,0,0,0-.54.13,1,1,0,0,0-.36.32,1.33,1.33,0,0,0-.19.47,2.6,2.6,0,0,0-.06.56,3.86,3.86,0,0,0,0,.61,1.33,1.33,0,0,0,.19.47.87.87,0,0,0,.34.32,1.28,1.28,0,0,0,.55.11,1.15,1.15,0,0,0,.55-.12,1.1,1.1,0,0,0,.35-.33,1.27,1.27,0,0,0,.19-.48A2.62,2.62,0,0,0,79.67,23.78Z"/><path class="cls-1" d="M86.74,25.45a.13.13,0,0,1,0,.09.18.18,0,0,1,0,.07l-.07,0h-.24l-.13,0-.12-.05-.1-.12-.11-.18-1.14-2.12-.18-.34c-.06-.12-.11-.24-.16-.35h0c0,.13,0,.27,0,.42v2.68a0,0,0,0,1,0,0s0,0,0,0l-.08,0h-.24l-.07,0s0,0,0,0a0,0,0,0,1,0,0V22.14A.18.18,0,0,1,84,22a.2.2,0,0,1,.14-.05h.39l.11,0,.09.09.09.15.87,1.63c0,.1.1.2.16.3l.14.28.14.27.13.27h0c0-.15,0-.31,0-.48V22a.06.06,0,0,1,0,0l0,0,.08,0h.23l.08,0,0,0a.06.06,0,0,1,0,0Z"/><path class="cls-1" d="M91.17,25.58a.08.08,0,0,1,0,0l0,0-.07,0h-.24l-.08,0a.05.05,0,0,1,0,0,.08.08,0,0,1,0,0V22a.06.06,0,0,1,0,0l0,0h.38s0,0,0,0a.06.06,0,0,1,0,0Z"/><path class="cls-1" d="M97.6,25.12v.08a.18.18,0,0,0,0,.06l0,0,0,.05-.12.09a1.23,1.23,0,0,1-.23.11,2,2,0,0,1-.32.1,2.11,2.11,0,0,1-.38,0,1.73,1.73,0,0,1-.66-.12,1.36,1.36,0,0,1-.5-.36,1.69,1.69,0,0,1-.31-.58,2.5,2.5,0,0,1-.11-.8A2.64,2.64,0,0,1,95,23a1.78,1.78,0,0,1,.33-.61,1.43,1.43,0,0,1,.52-.39,1.59,1.59,0,0,1,.66-.13,1.66,1.66,0,0,1,.32,0l.28.08.23.1a1.36,1.36,0,0,1,.14.1l0,.06s0,0,0,.05,0,0,0,.06v.19a.64.64,0,0,1,0,.07l0,0h0l-.11-.05-.18-.13-.28-.12a1.14,1.14,0,0,0-.39-.06,1,1,0,0,0-.46.1,1.07,1.07,0,0,0-.35.29,1.57,1.57,0,0,0-.22.47,2.49,2.49,0,0,0-.08.64,2.33,2.33,0,0,0,.08.62,1.16,1.16,0,0,0,.22.46,1,1,0,0,0,.35.28,1.16,1.16,0,0,0,.47.09,1.14,1.14,0,0,0,.39-.06,1,1,0,0,0,.28-.12l.2-.12a.17.17,0,0,1,.11-.05h0a.05.05,0,0,1,0,0s0,0,0,.06A.37.37,0,0,1,97.6,25.12Z"/><path class="cls-1" d="M103.2,24.61a1.11,1.11,0,0,1-.09.46,1,1,0,0,1-.67.56,1.64,1.64,0,0,1-.5.08,1.87,1.87,0,0,1-.35,0l-.29-.07-.21-.1-.11-.08a.16.16,0,0,1,0-.09.52.52,0,0,1,0-.14.34.34,0,0,1,0-.11.14.14,0,0,1,0-.07s0,0,0,0h0a.19.19,0,0,1,.12.05,1.09,1.09,0,0,0,.19.1,1.38,1.38,0,0,0,.27.11,1.13,1.13,0,0,0,.38.05.85.85,0,0,0,.29,0,.9.9,0,0,0,.24-.12.56.56,0,0,0,.14-.2.53.53,0,0,0,.06-.26.46.46,0,0,0-.08-.27.71.71,0,0,0-.19-.2,1.73,1.73,0,0,0-.27-.15l-.31-.15-.3-.16a1.39,1.39,0,0,1-.27-.21.92.92,0,0,1-.19-.28,1,1,0,0,1,0-.81.9.9,0,0,1,.24-.31,1.06,1.06,0,0,1,.35-.18,1.35,1.35,0,0,1,.46-.07l.24,0,.24.06.2.08.11.07,0,0s0,0,0,0,0,0,0,.06v.18s0,.05,0,.06,0,0,0,0l0,0a.26.26,0,0,1-.1,0l-.17-.09a1,1,0,0,0-.23-.1,1.36,1.36,0,0,0-.3,0,1,1,0,0,0-.27,0,.52.52,0,0,0-.19.12.36.36,0,0,0-.11.16.45.45,0,0,0,0,.2.5.5,0,0,0,.07.27.89.89,0,0,0,.19.2l.27.16.31.14.32.16a1.39,1.39,0,0,1,.27.21.92.92,0,0,1,.19.28A.94.94,0,0,1,103.2,24.61Z"/></svg>