<svg id="Capa_1" data-name="Capa 1" xmlns="http://www.w3.org/2000/svg" viewBox="0 0 126 141.73"><defs><style>.cls-1{fill:#5e5e5d;}.cls-2{fill:#2b2b2b;}.cls-3{fill:#bc7224;}</style></defs><rect class="cls-1" x="51.53" y="92.22" width="23.1" height="5.84"/><rect class="cls-1" x="55.58" y="113.86" width="14.94" height="3.25"/><rect class="cls-2" x="58.37" y="117.91" width="9.16" height="2.19"/><polygon class="cls-2" points="64.03 123.18 62.03 123.18 61.15 120.74 64.91 120.74 64.03 123.18"/><polygon class="cls-3" points="68.86 125.28 89.73 119.4 68.52 124.48 87.31 115.75 67.99 123.72 81.77 114.69 63.23 125.51 62.84 125.51 44.31 114.69 58.08 123.72 38.76 115.75 57.55 124.48 36.34 119.4 57.22 125.28 39.43 124.08 63.03 127.21 86.65 124.08 68.86 125.28"/><path class="cls-2" d="M118.82,119.34l-7.59-3.44a47,47,0,0,0-1.47-5.57l4.89-6.69a1.2,1.2,0,0,0,.06-1.29l-5.61-9.9a1.22,1.22,0,0,0-1.13-.61l-8.69.56c-1.06-1.16-2.19-2.28-3.36-3.34l1-8.43a1.19,1.19,0,0,0-.59-1.14l-9.81-5.77a1.2,1.2,0,0,0-1.29,0l-7,5a47.75,47.75,0,0,0-4.9-1.31l-3.51-8a1.22,1.22,0,0,0-1.08-.7L57.29,68.7a1.21,1.21,0,0,0-1.09.68l-3.49,8.06a50.66,50.66,0,0,0-5.25,1.41L40.69,73.4a1.23,1.23,0,0,0-1.28-.06L29.51,79a1.18,1.18,0,0,0-.61,1.13l1,9a52.54,52.54,0,0,0-3.79,3.82l-8.64-1.55a1.21,1.21,0,0,0-1.14.59l-5.77,9.81a1.21,1.21,0,0,0,0,1.28L16,110.42c-.49,1.51-.9,3-1.25,4.61l-7.92,3.42a1.2,1.2,0,0,0-.69,1.08l-.07,7.76h4.47a2.42,2.42,0,1,1,4.27-1.5,2.39,2.39,0,0,1-.56,1.5h8.93c0-.54,0-1.08,0-1.63A39.81,39.81,0,0,1,51.53,87.55v3.54h23V87.58a40,40,0,0,1,9.34,4.21c-4.15,6.48-8.16,9.32-10.84,10.56a12.36,12.36,0,0,1-3.84,1.1V99.06H56.28V112.7H69.16v-6.88c3-.22,9.78-2,16.65-12.73a39.73,39.73,0,0,1,16.94,32.57c0,.55,0,1.09,0,1.63h8.64a2.42,2.42,0,1,1,3.54,0h4.56l0-6.85A1.22,1.22,0,0,0,118.82,119.34ZM21.17,101.61a2.43,2.43,0,1,1-.83-3.33A2.43,2.43,0,0,1,21.17,101.61ZM38.79,84.28a2.42,2.42,0,1,1,1-3.29A2.42,2.42,0,0,1,38.79,84.28Zm24-6.46a2.42,2.42,0,1,1,2.47-2.37A2.42,2.42,0,0,1,62.83,77.82Zm27.31,5.62a2.43,2.43,0,1,1-.83-3.33A2.43,2.43,0,0,1,90.14,83.44Zm17.66,19a2.42,2.42,0,1,1,1-3.28A2.42,2.42,0,0,1,107.8,102.4Z"/><path class="cls-2" d="M24.06,42.51h7.65v7.25c0,5.55-4.14,7.31-10.08,7.31s-10.76-1.76-10.76-7.26V27.56c0-5.5,4.67-7.26,10.76-7.26s10.08,1.76,10.08,7.31v6.52H24.06V26.88c0-1.46-.83-2.19-2.43-2.19s-2.44.73-2.44,2.19V50.49c0,1.47.83,2.2,2.44,2.2s2.43-.73,2.43-2.2Z"/><path class="cls-2" d="M44.41,56V21.33h8.28V51.22h10V56Z"/><path class="cls-2" d="M74.46,56V21.33H92.72v4.72h-10v8.72h9.69v4.57H82.74V51.22h10V56Z"/><path class="cls-2" d="M105.67,56V21.33H114V56Z"/></svg>