<?xml version="1.0" encoding="utf-8"?>
<!-- Generator: Adobe Illustrator 25.4.1, SVG Export Plug-In . SVG Version: 6.00 Build 0)  -->
<svg version="1.1" id="Capa_1" xmlns="http://www.w3.org/2000/svg" xmlns:xlink="http://www.w3.org/1999/xlink" x="0px" y="0px"
	 viewBox="0 0 126 141.7" style="enable-background:new 0 0 126 141.7;" xml:space="preserve">
<style type="text/css">
	.st0{fill:#742069;}
	.st1{fill:#CFA8CE;}
	.st2{fill:#9066A7;}
	.st3{fill:#CAB0D4;}
	.st4{fill:#542B7C;}
</style>
<path class="st0" d="M34.2,87L12,86.5l0,0c-0.9,0-1.8-0.4-2.4-1c-0.6-0.8-0.3-2,0-2.9l16.9-51.3c0-0.1,0.1-0.2,0.1-0.2
	c2.7,7.7,10.6,31.2,14.1,41.5C40.4,76.3,38.7,85.8,34.2,87"/>
<path class="st1" d="M42.2,68c-3.4-10.1-12-35.2-13.6-39.8c0.4-0.4,0.9-0.7,1.4-1c2.2-1.2,5.1-1.1,7.9-0.9l2.1,0.1l8.5,0.3
	c0.6,0,1.2,0,1.8,0c1.8-0.2,3.6,0.1,5.3,0.7c0.5,0.2,1,0.5,1.4,0.9L42.2,68z"/>
<path class="st2" d="M83,67.9l-0.9-2.6v0.1L69,28.4c1.1-1,2.4-1.6,3.8-1.8h18.5c2.1-0.2,4.2,0.3,6,1.4L83,67.9z"/>
<path class="st3" d="M116.4,85.5c-0.4,0.7-1.3,1-2.7,1.1l-18.9,0.3c-0.2,0-5.5,0-6.9-4.9l-3.3-9.7l14.9-41.6c0.2,0.5,0.4,1,0.5,1.6
	l15.7,47.6l0.1,0.2C116.2,81,117.3,84,116.4,85.5"/>
<path class="st4" d="M81.3,71.8l-6.8-19.2C72,45.6,69.4,38,67,31c-0.1-0.1-3,5.6-4,7.6c-0.1,0.2-0.3,0.2-0.5,0.1
	c-0.1,0-0.1-0.1-0.1-0.1c-1-2-3.9-7.7-4-7.6c-2.5,7-5.1,14.6-7.6,21.6L44,71.8c0,0.1-0.2,0.5-0.2,0.6C44,74,45,82,49,85.4
	c1.3,1.1,3,1.6,4.6,1.4c2.8,0.1,5.5,0.1,8.3,0.1h1.4c2.8,0,5.5,0,8.3-0.1c1.7,0.2,3.3-0.3,4.6-1.4c4-3.4,5.1-11.4,5.3-13
	C81.4,72.2,81.4,72,81.3,71.8z"/>
</svg>
